<svg xmlns="http://www.w3.org/2000/svg" viewBox="0 0 512 512" role="img" aria-label="Kung-Fu Imperial Guards icon">
  <defs><linearGradient id="b" x1="0" y1="0" x2="0" y2="1"><stop stop-color="#142735"/><stop offset="1" stop-color="#05080c"/></linearGradient><linearGradient id="g"><stop stop-color="#ffe49a"/><stop offset="1" stop-color="#bd731f"/></linearGradient></defs>
  <rect width="512" height="512" rx="92" fill="url(#b)"/><circle cx="256" cy="230" r="172" fill="#081017" stroke="#d6a646" stroke-width="18"/><path d="M102 341l68-155 53 68 42-130 53 130 44-68 49 155H102z" fill="#311611"/><circle cx="256" cy="174" r="55" fill="#d49a72" stroke="#07090a" stroke-width="18"/><path d="M200 165q28-88 93-38l26 54-31-18-17 29-18-31-29 26-7-31z" fill="#0d1012"/><path d="M176 265q78-64 160 0l-20 130H196z" fill="#d08a22" stroke="#080a0b" stroke-width="20"/><path d="M190 280l-90 45M322 280l91-48" stroke="#d08a22" stroke-width="34" stroke-linecap="round"/><path d="M132 421h248" stroke="url(#g)" stroke-width="14"/><text x="256" y="463" text-anchor="middle" font-family="Georgia,serif" font-weight="900" font-size="52" fill="url(#g)">功夫</text></svg>
